name rise49.25peak52.1432fall72.8391.mot
datacolumns 19
datarows 32
range 5.65664100000000 5.70830700000000
endheader
time	ground_force1_vx	ground_force1_vy	ground_force1_vz	ground_force1_px	ground_force1_py	ground_force1_pz	ground_force2_vx	ground_force2_vy	ground_force2_vz	ground_force2_px	ground_force2_py	ground_force2_pz	ground_torque1_x	ground_torque1_y	ground_torque1_z	ground_torque2_x	ground_torque2_y	ground_torque2_z	
5.65664100000000	-37.00863100000000	802.39380800000004	55.78506800000000	0.13945300000000	0.00000000000000	0.10538800000000	-1.42020600000000	11.24416200000000	2.55566200000000	0.00000000000000	0.00000000000000	0.00000000000000	0.00000000000000	22.87740800000000	0.00000000000000	0.00000000000000	0.92570700000000	0.00000000000000	
5.65831100000000	-37.80821600000000	801.86539700000003	55.86465500000000	0.13834600000000	0.00000000000000	0.10534200000000	-1.88544700000000	16.04315100000000	3.50065300000000	0.00000000000000	0.00000000000000	0.00000000000000	0.00000000000000	22.88547900000000	0.00000000000000	0.00000000000000	1.27555800000000	0.00000000000000	
5.65999200000000	-38.62095100000000	801.22772699999996	55.92546500000000	0.13725100000000	0.00000000000000	0.10529300000000	-2.37140800000000	21.43239600000000	4.52463000000000	0.00000000000000	0.00000000000000	0.00000000000000	0.00000000000000	22.89217300000000	0.00000000000000	0.00000000000000	1.65693000000000	0.00000000000000	
5.66164200000000	-39.44656800000000	800.47695799999997	55.96659900000000	0.13617100000000	0.00000000000000	0.10523900000000	-2.85921000000000	27.30969100000000	5.59845500000000	0.32466900000000	0.00000000000000	-0.06186500000000	0.00000000000000	22.89746900000000	0.00000000000000	0.00000000000000	3.70035600000000	0.00000000000000	
5.66330800000000	-40.28474800000000	799.60927700000002	55.98718400000000	0.13510700000000	0.00000000000000	0.10518200000000	-3.32890100000000	33.55536200000000	6.69023900000000	0.33152400000000	0.00000000000000	-0.06225900000000	0.00000000000000	22.90134100000000	0.00000000000000	0.00000000000000	4.48299800000000	0.00000000000000	
5.66499100000000	-41.13512100000000	798.62089400000002	55.98637300000000	0.13405800000000	0.00000000000000	0.10512100000000	-3.76089200000000	40.04243700000000	7.76779700000000	0.33786200000000	0.00000000000000	-0.06260900000000	0.00000000000000	22.90375600000000	0.00000000000000	0.00000000000000	5.27250300000000	0.00000000000000	
5.66664300000000	-41.99726700000000	797.50805600000001	55.96335200000000	0.13302600000000	0.00000000000000	0.10505500000000	-4.13730400000000	46.64704500000000	8.80105100000000	0.34375100000000	0.00000000000000	-0.06292300000000	0.00000000000000	22.90467600000000	0.00000000000000	0.00000000000000	6.04759600000000	0.00000000000000	
5.66831300000000	-42.87071100000000	796.26704900000004	55.91734000000000	0.13201100000000	0.00000000000000	0.10498600000000	-4.44309300000000	53.25768400000000	9.76405900000000	0.34924400000000	0.00000000000000	-0.06320800000000	0.00000000000000	22.90405500000000	0.00000000000000	0.00000000000000	6.78923400000000	0.00000000000000	
5.66998800000000	-43.75492400000000	794.89419999999996	55.84759300000000	0.13101400000000	0.00000000000000	0.10491300000000	-4.66679800000000	59.78236900000000	10.63647600000000	0.35438100000000	0.00000000000000	-0.06347000000000	0.00000000000000	22.90183900000000	0.00000000000000	0.00000000000000	7.48177200000000	0.00000000000000	
5.67164200000000	-44.64932000000000	793.38588800000002	55.75340800000000	0.13003500000000	0.00000000000000	0.10483500000000	-4.80091300000000	66.15315800000000	11.40435500000000	0.35919900000000	0.00000000000000	-0.06371300000000	0.00000000000000	22.89796800000000	0.00000000000000	0.00000000000000	8.11370100000000	0.00000000000000	
5.67330700000000	-45.55325700000000	791.73854500000004	55.63412700000000	0.12907400000000	0.00000000000000	0.10475300000000	-4.84187900000000	72.32800800000000	12.06029900000000	0.36372700000000	0.00000000000000	-0.06394100000000	0.00000000000000	22.89237100000000	0.00000000000000	0.00000000000000	8.67793000000000	0.00000000000000	
5.67498700000000	-46.46603200000000	789.94866300000001	55.48913600000000	0.12813100000000	0.00000000000000	0.10466700000000	-4.78975800000000	78.29019800000000	12.60305600000000	0.36798700000000	0.00000000000000	-0.06415700000000	0.00000000000000	22.88497200000000	0.00000000000000	0.00000000000000	9.17167100000000	0.00000000000000	
5.67664200000000	-47.38688500000000	788.01279899999997	55.31786900000000	0.12720700000000	0.00000000000000	0.10457700000000	-4.64766700000000	84.04576400000001	13.03667100000000	0.37200100000000	0.00000000000000	-0.06436300000000	0.00000000000000	22.87568300000000	0.00000000000000	0.00000000000000	9.59597200000000	0.00000000000000	
5.67831200000000	-48.31499500000000	785.92758400000002	55.11981400000000	0.12630000000000	0.00000000000000	0.10448200000000	-4.42107000000000	89.61951900000000	13.36936200000000	0.37578400000000	0.00000000000000	-0.06456200000000	0.00000000000000	22.86440900000000	0.00000000000000	0.00000000000000	9.95502300000000	0.00000000000000	
5.67997500000000	-49.24947900000000	783.68972299999996	54.89451100000000	0.12541200000000	0.00000000000000	0.10438400000000	-4.11699400000000	95.05021400000000	13.61223400000000	0.37935200000000	0.00000000000000	-0.06475600000000	0.00000000000000	22.85104600000000	0.00000000000000	0.00000000000000	10.25531300000000	0.00000000000000	
5.68164400000000	-50.18939000000000	781.29600400000004	54.64155800000000	0.12454100000000	0.00000000000000	0.10428100000000	-3.74326700000000	100.38540800000000	13.77798800000000	0.38271700000000	0.00000000000000	-0.06494500000000	0.00000000000000	22.83548000000000	0.00000000000000	0.00000000000000	10.50474100000000	0.00000000000000	
5.68331100000000	-51.13372300000000	778.74330499999996	54.36060800000000	0.12368700000000	0.00000000000000	0.10417400000000	-3.30781800000000	105.67650600000000	13.87972500000000	0.38588900000000	0.00000000000000	-0.06513300000000	0.00000000000000	22.81758800000000	0.00000000000000	0.00000000000000	10.71176400000000	0.00000000000000	
5.68497700000000	-52.08140500000000	776.02859500000000	54.05137600000000	0.12285000000000	0.00000000000000	0.10406300000000	-2.81809800000000	110.97432900000000	13.92991600000000	0.38887900000000	0.00000000000000	-0.06531800000000	0.00000000000000	22.79724000000000	0.00000000000000	0.00000000000000	10.88464100000000	0.00000000000000	
5.68664500000000	-53.03130400000000	773.14894600000002	53.71364100000000	0.12203000000000	0.00000000000000	0.10394800000000	-2.28064000000000	116.32548600000000	13.93960400000000	0.39169300000000	0.00000000000000	-0.06550400000000	0.00000000000000	22.77429600000000	0.00000000000000	0.00000000000000	11.03082400000000	0.00000000000000	
5.68830900000000	-53.98222000000000	770.10153400000002	53.34724200000000	0.12122400000000	0.00000000000000	0.10382900000000	-1.70076600000000	121.76966899999999	13.91784600000000	0.39433900000000	0.00000000000000	-0.06569000000000	0.00000000000000	22.74860700000000	0.00000000000000	0.00000000000000	11.15651300000000	0.00000000000000	
5.68999100000000	-54.93289300000000	766.88364799999999	52.95208400000000	0.12043300000000	0.00000000000000	0.10370600000000	-1.08244600000000	127.33793400000000	13.87140800000000	0.39682500000000	0.00000000000000	-0.06587700000000	0.00000000000000	22.72001600000000	0.00000000000000	0.00000000000000	11.26638900000000	0.00000000000000	
5.69164400000000	-55.88200000000000	763.49269200000003	52.52813900000000	0.11965600000000	0.00000000000000	0.10358000000000	-0.42828600000000	133.05190500000000	13.80468500000000	0.39915400000000	0.00000000000000	-0.06606600000000	0.00000000000000	22.68836100000000	0.00000000000000	0.00000000000000	11.36350300000000	0.00000000000000	
5.69330900000000	-56.82815500000000	759.92619800000000	52.07544600000000	0.11889200000000	0.00000000000000	0.10344900000000	0.26037900000000	138.92380700000001	13.71980700000000	0.40133400000000	0.00000000000000	-0.06625700000000	0.00000000000000	22.65347000000000	0.00000000000000	0.00000000000000	11.44932100000000	0.00000000000000	
5.69497400000000	-57.76991000000000	756.18182500000000	51.59411100000000	0.11813900000000	0.00000000000000	0.10331600000000	0.98330500000000	144.95716500000000	13.61689800000000	0.40336800000000	0.00000000000000	-0.06645000000000	0.00000000000000	22.61516500000000	0.00000000000000	0.00000000000000	11.52387500000000	0.00000000000000	
5.69663900000000	-58.70575900000000	752.25737100000003	51.08430900000000	0.11739700000000	0.00000000000000	0.10317900000000	1.74110800000000	151.14799400000001	13.49444300000000	0.40526100000000	0.00000000000000	-0.06664700000000	0.00000000000000	22.57326300000000	0.00000000000000	0.00000000000000	11.58600300000000	0.00000000000000	
5.69830900000000	-59.63413400000000	748.15077799999995	50.54628200000000	0.11666500000000	0.00000000000000	0.10303800000000	2.53500800000000	157.48631599999999	13.34969800000000	0.40701700000000	0.00000000000000	-0.06684700000000	0.00000000000000	22.52757500000000	0.00000000000000	0.00000000000000	11.63363200000000	0.00000000000000	
5.69998900000000	-60.55341400000000	743.86013900000000	49.98034300000000	0.11594100000000	0.00000000000000	0.10289500000000	3.36656700000000	163.95780099999999	13.17912900000000	0.40864000000000	0.00000000000000	-0.06705000000000	0.00000000000000	22.47790800000000	0.00000000000000	0.00000000000000	11.66409100000000	0.00000000000000	
5.70164500000000	-61.46192100000000	739.38370799999996	49.38687200000000	0.11522400000000	0.00000000000000	0.10274800000000	4.23744800000000	170.54542100000000	12.97882200000000	0.41013300000000	0.00000000000000	-0.06725700000000	0.00000000000000	22.42406400000000	0.00000000000000	0.00000000000000	11.67440900000000	0.00000000000000	
5.70331000000000	-62.35792500000000	734.71990600000004	48.76631700000000	0.11451300000000	0.00000000000000	0.10259900000000	5.14920500000000	177.23096699999999	12.74485600000000	0.41150000000000	0.00000000000000	-0.06746700000000	0.00000000000000	22.36584400000000	0.00000000000000	0.00000000000000	11.66158500000000	0.00000000000000	
5.70497400000000	-63.23964700000000	729.86733400000003	48.11919400000000	0.11380600000000	0.00000000000000	0.10244700000000	6.10310900000000	183.99636100000001	12.47360000000000	0.41274300000000	0.00000000000000	-0.06768100000000	0.00000000000000	22.30304400000000	0.00000000000000	0.00000000000000	11.62282000000000	0.00000000000000	
5.70664500000000	-64.10526200000000	724.82477900000004	47.44608400000000	0.11310300000000	0.00000000000000	0.10229300000000	7.10003500000000	190.82469399999999	12.16195100000000	0.41386600000000	0.00000000000000	-0.06789900000000	0.00000000000000	22.23546300000000	0.00000000000000	0.00000000000000	11.55569100000000	0.00000000000000	
5.70830700000000	-64.95290000000000	719.59122500000001	46.74763500000000	0.11240100000000	0.00000000000000	0.10213600000000	8.14037300000000	197.70097799999999	11.80748000000000	0.41487200000000	0.00000000000000	-0.06812100000000	0.00000000000000	22.16289600000000	0.00000000000000	0.00000000000000	11.45827300000000	0.00000000000000	
